<svg width="79" height="80" viewBox="0 0 79 80" fill="none" xmlns="http://www.w3.org/2000/svg">
<g clip-path="url(#clip0_133_342)">
<g filter="url(#filter0_d_133_342)">
<path d="M62.2325 19.195C62.2325 19.195 46.8588 11.533 36.8665 10C28.4091 12.298 16.1235 21.493 16.1235 21.493V23.026C16.1235 23.026 20.7374 46.777 22.2754 51.373C20.1766 52.1943 18.4225 53.7058 17.3036 55.6569C16.1847 57.6081 15.7683 59.8817 16.1235 62.101C17.6402 69.7631 23.0277 70.5371 24.5657 69.7631C26.4847 69.7964 28.3451 69.1032 29.7716 67.8233C31.1981 66.5433 32.0847 64.7718 32.2525 62.866H37.6339C37.6339 63.6341 38.4014 63.6341 38.4014 64.399H39.9394L42.2449 59.803C46.9515 59.7893 51.6245 59.0121 56.0806 57.502C57.6186 51.373 63 21.493 63 21.493L62.2325 19.195ZM19.9517 26.857L23.7952 27.622V26.089L19.9517 24.556L36.8634 16.894L37.6339 38.3621L23.0277 41.413L19.9517 26.857ZM33.02 59.0471H36.096V59.8151L33.02 59.0471ZM29.9471 53.671V52.141C29.1766 52.141 28.4091 51.373 27.6386 51.373C26.8681 51.373 26.1036 50.608 25.3331 50.608L23.7952 44.479L27.6386 45.244V43.711H25.3331L37.6339 39.88V52.906L29.9471 53.671ZM53.0016 53.671L40.6947 52.906V40.648L52.9925 42.946H51.4576V44.479L55.301 43.711L53.0016 53.671ZM58.383 25.324L55.3101 40.648L41.4774 37.579V16.894L59.1566 23.026L55.3131 24.556L54.5426 26.089L58.383 25.324Z" fill="white" fill-opacity="0.9" shape-rendering="crispEdges"/>
<path d="M36.8789 10.2549C41.8355 11.0242 48.1279 13.3042 53.2012 15.4033C55.7433 16.4552 57.9743 17.459 59.5693 18.2002C60.3665 18.5706 61.0045 18.8759 61.4434 19.0879C61.6628 19.1939 61.8327 19.2767 61.9473 19.333C61.978 19.3481 62.0046 19.3618 62.0273 19.373L62.7422 21.5107C62.7409 21.5179 62.7398 21.5258 62.7383 21.5342C62.7281 21.5909 62.7133 21.676 62.6934 21.7861C62.6536 22.0064 62.5945 22.33 62.5195 22.7441C62.3694 23.5731 62.1539 24.7645 61.8896 26.2129C61.3612 29.1097 60.6398 33.0358 59.8711 37.1533C58.3545 45.277 56.6525 54.1314 55.8701 57.3076C51.4787 58.7803 46.878 59.5392 42.2441 59.5527L42.0908 59.5537L42.0215 59.6914L39.7852 64.1494H38.624C38.554 63.8145 38.3526 63.6151 38.1943 63.457C38.0053 63.2683 37.8838 63.1402 37.8838 62.8662V62.6162H32.0234L32.0039 62.8438C31.8416 64.6862 30.9838 66.399 29.6045 67.6367C28.2251 68.8744 26.4262 69.5449 24.5703 69.5127L24.5088 69.5117L24.4531 69.54C24.1263 69.7045 23.5545 69.8018 22.8389 69.7217C22.1297 69.6423 21.2996 69.3899 20.4668 68.8818C18.911 67.9327 17.327 66.0778 16.5195 62.7402L16.3691 62.0527C16.0256 59.8927 16.4315 57.6803 17.5205 55.7812C18.611 53.8797 20.3205 52.406 22.3662 51.6055L22.5879 51.5195L22.5127 51.2939C21.7497 49.0139 20.2146 41.9464 18.8672 35.4258C18.1945 32.1705 17.5698 29.0578 17.1133 26.7598C16.8851 25.6112 16.6994 24.6659 16.5703 24.0078C16.5058 23.6787 16.4551 23.4211 16.4209 23.2461C16.4039 23.1588 16.3906 23.0919 16.3818 23.0469C16.378 23.0271 16.3752 23.0112 16.373 23V21.6191C16.3849 21.6103 16.3981 21.6011 16.4121 21.5908C16.5036 21.5233 16.6389 21.4234 16.8145 21.2959C17.1658 21.0408 17.6779 20.6735 18.3184 20.2256C19.5997 19.3294 21.3963 18.1105 23.4561 16.8203C27.5656 14.2463 32.6983 11.403 36.8789 10.2549ZM33.0195 58.7969L32.959 59.29L36.0352 60.0576L36.3457 60.1348V58.7969H33.0195ZM37.5596 39.6416L25.2588 43.4727L25.333 43.9609H27.3887V44.9395L23.8438 44.2334L23.4561 44.1562L23.5527 44.54L25.0908 50.6689L25.1377 50.8584H25.333C25.6479 50.8584 25.9762 51.0156 26.374 51.2139C26.7435 51.398 27.1832 51.623 27.6387 51.623C27.9534 51.6231 28.282 51.7814 28.6807 51.9805C28.9825 52.1312 29.3318 52.3067 29.6973 52.3672V53.9473L29.9717 53.9199L37.6592 53.1553L37.8838 53.1328V39.54L37.5596 39.6416ZM40.4443 53.1406L40.6797 53.1553L52.9863 53.9209L53.1973 53.9336L53.2451 53.7275L55.5449 43.7676L55.6318 43.3896L55.252 43.4658L51.708 44.1729V43.1963H52.9922L53.0381 42.7002L40.7402 40.4023L40.4443 40.3467V53.1406ZM36.7607 16.666L19.8486 24.3281L19.3135 24.5703L19.8594 24.7881L23.5449 26.2578V27.3174L20.001 26.6123L19.6289 26.5381L19.707 26.9092L22.7832 41.4648L22.835 41.709L23.0791 41.6582L37.6846 38.6064L37.8916 38.5635L37.8838 38.3535L37.1133 16.8848L37.0996 16.5127L36.7607 16.666ZM41.2275 37.7793L41.4229 37.8232L55.2559 40.8926L55.5049 40.9473L55.5557 40.6973L58.6279 25.373L58.7021 25.0059L58.334 25.0791L54.9951 25.7432L55.4932 24.7529L59.249 23.2578L59.873 23.0098L59.2383 22.79L41.5596 16.6582L41.2275 16.543V37.7793Z" stroke="white" stroke-opacity="0.9" stroke-width="0.5" shape-rendering="crispEdges"/>
</g>
</g>
<defs>
<filter id="filter0_d_133_342" x="0" y="-5" width="79" height="92" filterUnits="userSpaceOnUse" color-interpolation-filters="sRGB">
<feFlood flood-opacity="0" result="BackgroundImageFix"/>
<feColorMatrix in="SourceAlpha" type="matrix" values="0 0 0 0 0 0 0 0 0 0 0 0 0 0 0 0 0 0 127 0" result="hardAlpha"/>
<feOffset dy="1"/>
<feGaussianBlur stdDeviation="8"/>
<feComposite in2="hardAlpha" operator="out"/>
<feColorMatrix type="matrix" values="0 0 0 0 1 0 0 0 0 1 0 0 0 0 1 0 0 0 0.5 0"/>
<feBlend mode="normal" in2="BackgroundImageFix" result="effect1_dropShadow_133_342"/>
<feBlend mode="normal" in="SourceGraphic" in2="effect1_dropShadow_133_342" result="shape"/>
</filter>
<clipPath id="clip0_133_342">
<rect width="79" height="80" fill="white"/>
</clipPath>
</defs>
</svg>
