<svg width="40" height="40" viewBox="0 0 40 40" fill="none" xmlns="http://www.w3.org/2000/svg">
<path d="M25 16.4988L20.75 20.9992H20.5L19 14.9987H18.5C17.7044 14.9987 16.9413 15.3148 16.3787 15.8775C15.8161 16.4401 15.5 17.2032 15.5 17.999V24.4995C21 24.4995 24.5 26.9997 24.5 27.9998H15M21 17.1169L23 14.9987M8 31H32M19.555 12.9985C19.555 12.9985 21.365 12.4415 21.69 11.2224C21.8104 10.7709 21.7474 10.2901 21.5147 9.88487C21.282 9.47963 20.8986 9.18285 20.448 9.05923C20.2251 8.9997 19.9926 8.98486 19.7639 9.01554C19.5352 9.04623 19.3148 9.12184 19.1155 9.23802C18.9161 9.35421 18.7417 9.50868 18.6023 9.69253C18.4628 9.87639 18.3611 10.086 18.303 10.3093C17.978 11.5284 19.264 12.9195 19.264 12.9195L19.555 12.9985Z" stroke="white" stroke-width="1.8"/>
</svg>
