<svg width="24" height="24" viewBox="0 0 24 24" fill="none" xmlns="http://www.w3.org/2000/svg">
<path d="M19.25 2.75H4.75C3.65 2.75 2.75 3.65 2.75 4.75V19.25C2.75 20.35 3.65 21.25 4.75 21.25H19.25C20.35 21.25 21.25 20.35 21.25 19.25V4.75C21.25 3.65 20.35 2.75 19.25 2.75Z" stroke="#F20091" stroke-linecap="round" stroke-linejoin="round"/>
<path d="M7.6665 18.5C6.475 18.5 5.5 18.028 5.5 16.8365V7C5.5 6.175 6.175 5.5 7 5.5H17C17.825 5.5 18.5 6.175 18.5 7V16.3335C18.4983 16.9076 18.2695 17.4576 17.8636 17.8636C17.4576 18.2695 16.9076 18.4983 16.3335 18.5V17.737C15.7265 17.2345 15.487 17.132 15.487 17.132C15.487 17.132 16.249 16.517 16.436 16.254C16.844 15.679 17.8675 13.2315 15.7015 11.7065C14.9255 11.16 12.5465 10.048 12.5465 10.048C12.0285 8.807 11.9825 8.2755 12 6.962C12.0175 8.2755 11.9715 8.807 11.453 10.048C11.453 10.048 9.075 11.16 8.2985 11.7065C6.1325 13.2315 7.156 15.679 7.564 16.254C7.751 16.5175 8.513 17.132 8.513 17.132C8.513 17.132 8.2735 17.2345 7.667 17.737L7.6665 18.5Z" stroke="#F20091" stroke-linecap="round" stroke-linejoin="round"/>
</svg>
