<svg width="26" height="28" viewBox="0 0 26 28" fill="none" xmlns="http://www.w3.org/2000/svg">
<path fill-rule="evenodd" clip-rule="evenodd" d="M14.7558 4.15116V4.46308C17.8664 5.38808 20.1337 8.26956 20.1337 11.6802V19.2093H21.2093V21.3605H4V19.2093H5.07558V11.6802C5.07517 10.0585 5.59839 8.47999 6.56739 7.1796C7.53639 5.8792 8.89936 4.92643 10.4535 4.46308V4.15116C10.4535 3.58064 10.6801 3.03348 11.0835 2.63006C11.487 2.22664 12.0341 2 12.6047 2C13.1752 2 13.7223 2.22664 14.1258 2.63006C14.5292 3.03348 14.7558 3.58064 14.7558 4.15116ZM7.22674 19.2093H17.9826V11.6802C17.9826 10.2539 17.416 8.88603 16.4074 7.87748C15.3989 6.86893 14.031 6.30233 12.6047 6.30233C11.1783 6.30233 9.81045 6.86893 8.8019 7.87748C7.79334 8.88603 7.22674 10.2539 7.22674 11.6802V19.2093ZM14.7558 23.5116V22.436H10.4535V23.5116C10.4535 24.0822 10.6801 24.6293 11.0835 25.0327C11.487 25.4362 12.0341 25.6628 12.6047 25.6628C13.1752 25.6628 13.7223 25.4362 14.1258 25.0327C14.5292 24.6293 14.7558 24.0822 14.7558 23.5116Z" fill="white" fill-opacity="0.6"/>
</svg>
