<svg width="40" height="40" viewBox="0 0 40 40" fill="none" xmlns="http://www.w3.org/2000/svg">
<path d="M24.608 10.4H15.392C13.7631 10.4 12.9486 10.4 12.4429 10.928C11.936 11.4536 11.936 12.302 11.936 14V26C11.936 27.6968 11.936 28.5452 12.4429 29.072C12.9486 29.6 13.7631 29.6 15.392 29.6H24.608C26.237 29.6 27.0514 29.6 27.5572 29.072C28.064 28.5452 28.064 27.6968 28.064 26V14C28.064 12.3032 28.064 11.4548 27.5572 10.928C27.0526 10.4 26.2381 10.4 24.608 10.4Z" stroke="white" stroke-width="1.8" stroke-linecap="round" stroke-linejoin="round"/>
<path d="M22.304 10.4V8M26.912 10.4V8M17.696 10.4V8M13.088 10.4V8M22.304 32V29.6M26.912 32V29.6M17.696 32V29.6M13.088 32V29.6M16.9898 19.184C15.6731 16.724 17.5543 15.6452 18.9989 14.5964C19.5473 14.1992 19.8203 14 19.9989 14C20.1763 14 20.4504 14.1992 20.9976 14.5964C22.4434 15.6452 24.3269 16.724 23.0113 19.1852C22.7809 19.6172 22.6657 19.8332 22.6266 19.9868C22.5886 20.1404 22.5886 20.3204 22.5886 20.6804L22.5863 24.7736C22.5863 25.352 22.5863 25.6412 22.4181 25.82C22.2487 26 21.978 26 21.4343 26H18.5658C18.022 26 17.7502 26 17.582 25.82C17.4138 25.64 17.4126 25.352 17.4126 24.7736V20.6816C17.4126 20.3216 17.4126 20.1416 17.3746 19.9856C17.3366 19.832 17.2202 19.616 16.9898 19.184Z" stroke="white" stroke-width="1.8" stroke-linecap="round" stroke-linejoin="round"/>
</svg>
