<svg width="40" height="40" viewBox="0 0 40 40" fill="none" xmlns="http://www.w3.org/2000/svg">
<path fill-rule="evenodd" clip-rule="evenodd" d="M20 8C26.6274 8 32 13.3726 32 20C32 26.6274 26.6274 32 20 32C13.3726 32 8 26.6274 8 20C8 13.3726 13.3726 8 20 8ZM21.2001 10.4743L21.2 12.8H18.8L18.7999 10.4743C14.4575 11.0158 11.0158 14.4575 10.4743 18.7999L12.8 18.8V21.2H10.4743C11.0158 25.5424 14.4575 28.9842 18.7999 29.5257L18.8 27.2H21.2V29.5257C25.5425 28.9842 28.9842 25.5424 29.5257 21.2001L27.2 21.2V18.8H29.5257C28.9842 14.4575 25.5424 11.0158 21.2001 10.4743ZM26 14L21.8 21.8L14 26L18.2 18.2L26 14ZM20 18.8C19.3372 18.8 18.8 19.3372 18.8 20C18.8 20.6627 19.3372 21.2 20 21.2C20.6627 21.2 21.2 20.6627 21.2 20C21.2 19.3372 20.6627 18.8 20 18.8Z" fill="white"/>
</svg>
