<svg width="40" height="40" viewBox="0 0 40 40" fill="none" xmlns="http://www.w3.org/2000/svg">
<path d="M32 15.8822L12.8 30V24.4752M8 15.8822L27.2 30V24.4752M29.1776 12.2786L28.3868 11.0516C27.95 10.3727 27.7316 10.0327 27.4448 10.0021C27.1592 9.97037 26.8388 10.2927 26.1992 10.9374C24.1328 13.0198 22.0664 12.7116 20 16.4563C17.9336 12.7116 15.8672 13.0198 13.8008 10.9374C13.1612 10.2927 12.8408 9.97037 12.5552 10.0021C12.2684 10.0327 12.05 10.3727 11.6132 11.0516L10.8236 12.2786C10.5176 12.7516 10.3652 12.9892 10.4072 13.2386C10.448 13.4881 10.6676 13.6586 11.108 13.9998L18.5264 19.7622C19.2356 20.3128 19.5908 20.5881 20 20.5881C20.4092 20.5881 20.7644 20.3128 21.4736 19.7622L28.892 13.9998C29.3324 13.6586 29.552 13.4881 29.5928 13.2386C29.6348 12.9892 29.4824 12.7516 29.1776 12.2786Z" stroke="white" stroke-width="1.8" stroke-linecap="round" stroke-linejoin="round"/>
</svg>
