<svg width="24" height="24" viewBox="0 0 24 24" fill="none" xmlns="http://www.w3.org/2000/svg">
<path fill-rule="evenodd" clip-rule="evenodd" d="M10.44 2.75C9.22152 2.75016 8.02055 3.03985 6.93601 3.5952C5.85148 4.15055 4.91443 4.95566 4.20209 5.94419C3.48974 6.93272 3.02249 8.07637 2.83883 9.2809C2.65518 10.4854 2.76038 11.7164 3.14576 12.8723C3.53114 14.0282 4.18568 15.0759 5.05544 15.9293C5.92519 16.7826 6.98527 17.417 8.14831 17.7803C9.31135 18.1435 10.5441 18.2253 11.7449 18.0187C12.9457 17.8121 14.0802 17.3231 15.055 16.592C15.113 16.762 15.209 16.921 15.345 17.056L19.185 20.896C19.4132 21.1171 19.7192 21.2396 20.0369 21.2369C20.3546 21.2343 20.6585 21.1069 20.883 20.8821C21.1076 20.6573 21.2347 20.3532 21.2369 20.0355C21.2392 19.7178 21.1163 19.4119 20.895 19.184L17.055 15.344C16.9249 15.2134 16.7665 15.1145 16.592 15.055C17.4491 13.9125 17.9712 12.5539 18.0996 11.1314C18.228 9.70884 17.9577 8.27868 17.319 7.00115C16.6803 5.72362 15.6984 4.64922 14.4834 3.89836C13.2684 3.1475 11.8683 2.74986 10.44 2.75ZM4.68998 10.44C4.68998 9.6849 4.83871 8.93719 5.12767 8.23957C5.41663 7.54195 5.84018 6.90807 6.37411 6.37414C6.90805 5.8402 7.54193 5.41666 8.23955 5.12769C8.93717 4.83873 9.68488 4.69 10.44 4.69C11.1951 4.69 11.9428 4.83873 12.6404 5.12769C13.338 5.41666 13.9719 5.8402 14.5058 6.37414C15.0398 6.90807 15.4633 7.54195 15.7523 8.23957C16.0412 8.93719 16.19 9.6849 16.19 10.44C16.19 11.965 15.5842 13.4275 14.5058 14.5059C13.4275 15.5842 11.965 16.19 10.44 16.19C8.91498 16.19 7.45245 15.5842 6.37411 14.5059C5.29578 13.4275 4.68998 11.965 4.68998 10.44Z" fill="white" fill-opacity="0.3"/>
</svg>
